<svg width="630" height="850" viewBox="0 0 630 850" fill="none" xmlns="http://www.w3.org/2000/svg">
<g style="mix-blend-mode:color">
<path fill-rule="evenodd" clip-rule="evenodd" d="M630 0H0V850H630V0ZM271.5 126L293.5 568.5L236 614.5L243 669L214 694L151.5 649L136.5 589C136.167 587.5 136.9 583.5 142.5 579.5L45 139L215 70L237.5 78.5L240 114.5L247 111L271.5 124V126Z" fill="#242021"/>
</g>
<g style="mix-blend-mode:luminosity">
<path fill-rule="evenodd" clip-rule="evenodd" d="M630 0H0V850H630V0ZM271.5 126L293.5 568.5L236 614.5L243 669L214 694L151.5 649L136.5 589C136.167 587.5 136.9 583.5 142.5 579.5L45 139L215 70L237.5 78.5L240 114.5L247 111L271.5 124V126Z" fill="#242021" fill-opacity="0.8"/>
</g>
</svg>
